<svg width="40" height="40" viewBox="0 0 40 40" fill="none" xmlns="http://www.w3.org/2000/svg">
  <circle cx="20" cy="20" r="20" fill="#E0F2FE"/>
  <path d="M20 10C17.7909 10 16 11.7909 16 14C16 16.2091 17.7909 18 20 18C22.2091 18 24 16.2091 24 14C24 11.7909 22.2091 10 20 10ZM14 14C14 10.6863 16.6863 8 20 8C23.3137 8 26 10.6863 26 14C26 17.3137 23.3137 20 20 20C16.6863 20 14 17.3137 14 14ZM12 28C12 25.2386 14.2386 23 17 23H23C25.7614 23 28 25.2386 28 28V29C28 29.5523 27.5523 30 27 30H13C12.4477 30 12 29.5523 12 29V28ZM17 21C13.134 21 10 24.134 10 28V29C10 30.6569 11.3431 32 13 32H27C28.6569 32 30 30.6569 30 29V28C30 24.134 26.866 21 23 21H17Z" fill="#0369A1"/>
</svg>



